# AST/ASF file generated using VICON BodyLanguage
# -----------------------------------------------
:version 1.10
:name VICON
:units
  mass 1.0
  length 0.45
  angle deg
:documentation
   .ast/.asf automatically generated from VICON data using
   VICON BodyBuilder and BodyLanguage model FoxedUp or BRILLIANT.MOD
:root
   order TX TY TZ RX RY RZ
   axis XYZ
   position 0 0 0  
   orientation 0 0 0 
:bonedata
  begin
     id 1 
     name lhipjoint
     direction 0.528046 -0.759594 0.379717 
     length 2.39752 
     axis 0 0 0  XYZ
  end
  begin
     id 2 
     name lfemur
     direction 0.34202 -0.939693 0  
     length 7.31175  
     axis 0 0 20  XYZ
    dof rx ry rz
    limits (-160.0 20.0)
           (-70.0 70.0)
           (-60.0 70.0)
  end
  begin
     id 3 
     name ltibia
     direction 0.34202 -0.939693 0   
     length 7.52482   
     axis 0 0 20   XYZ
    dof rx
    limits (-10.0 170.0)
  end
  begin
     id 4 
     name lfoot
     direction 0.0675379 -0.185559 0.980309   
     length 2.00961   
     axis -90 7.62852e-016 20   XYZ
    dof rx rz
    limits (-45.0 90.0)
           (-70.0 20.0)
  end
  begin
     id 5 
     name ltoes
     direction 1.5352e-011 -4.22286e-011 1   
     length 1.01383   
     axis -90 7.62852e-016 20   XYZ
    dof rx
    limits (-90.0 20.0)
  end
  begin
     id 6 
     name rhipjoint
     direction -0.510274 -0.769251 0.384544   
     length 2.36742  
     axis 0 0 0  XYZ 
  end
  begin
     id 7 
     name rfemur
     direction -0.34202 -0.939693 0   
     length 7.45325   
     axis 0 0 -20   XYZ
    dof rx ry rz
    limits (-160.0 20.0)
           (-70.0 70.0)
           (-70.0 60.0)
  end
  begin
     id 8 
     name rtibia
     direction -0.34202 -0.939693 0   
     length 7.49587   
     axis 0 0 -20   XYZ
    dof rx
    limits (-10.0 170.0)
 end
 begin
     id 9 
     name rfoot
     direction -0.106475 -0.292536 0.950308   
     length 2.20898  
     axis -90 -7.62852e-016 -20   XYZ
    dof rx rz
    limits (-45.0 90.0)
           (-20.0 70.0)
  end
  begin
     id 10 
     name rtoes
     direction -1.53597e-011 -4.22023e-011 1   
     length 1.10065   
     axis -90 -7.62852e-016 -20   XYZ
    dof rx
    limits (-90.0 20.0)
  end
  begin
     id 11 
     name lowerback
     direction 0.0260024 0.998026 -0.0571652   
     length 2.11214   
     axis 0 0 0   XYZ
    dof rx ry rz
    limits (-20.0 45.0)
           (-30.0 30.0)
           (-30.0 30.0)
  end
  begin
     id 12 
     name upperback
     direction 0.0216202 0.999542 -0.0211766   
     length 2.11689   
     axis 0 0 0   XYZ
    dof rx ry rz
    limits (-20.0 45.0)
           (-30.0 30.0)
           (-30.0 30.0)
  end
  begin
     id 13 
     name thorax
     direction 0.00883312 0.999944 0.00589057   
     length 2.11821   
     axis 0 0 0   XYZ
    dof rx ry rz
    limits (-20.0 45.0)
           (-30.0 30.0)
           (-30.0 30.0)
  end
  begin
     id 14 
     name lowerneck
     direction -0.059386 0.994433 0.0870401   
     length 1.81176   
     axis 0 0 0   XYZ
    dof rx ry rz
    limits (-20.0 45.0)
           (-30.0 30.0)
           (-30.0 30.0)
  end
  begin
     id 15 
     name upperneck
     direction 0.0506457 0.97328 -0.223967   
     length 1.82382   
     axis 0 0 0   XYZ
    dof rx ry rz
    limits (-20.0 45.0)
           (-30.0 30.0)
           (-30.0 30.0)
  end
  begin
     id 16
     name head
     direction 0.0205902 0.996147 -0.0852487  
     length 1.84805  
     axis 0 0 0   XYZ
    dof rx ry rz
    limits (-20.0 45.0)
           (-30.0 30.0)
           (-30.0 30.0)
  end
  begin
     id 17 
     name lclavicle
     direction 0.949493 0.303881 -0.0782325  
     length 3.60584  
     axis 0 0 0   XYZ
    dof ry rz
    limits (-20.0 10.0)
           (0.0 20.0)
  end
  begin
     id 18 
     name lhumerus
     direction 1 -4.48965e-011 1.48782e-027   
     length 4.95681   
     axis 180 -30 -90   XYZ
    dof rx ry rz
    limits (-60.0 90.0)
           (-90.0 90.0)
           (-90.0 90.0)
  end
  begin
     id 19
     name lradius
     direction 1 -4.48952e-011 2.06528e-027   
     length 3.40915   
     axis 180 -30 -90   XYZ
    dof rx
    limits (-10.0 170.0)
  end
  begin
     id 20
     name lwrist
     direction 1 -4.48964e-011 1.28021e-027   
     length 1.70457   
     axis -1.61767e-015 90 90   XYZ
    dof ry
    limits (-180.0 0.0)
 end
  begin
     id 21 
     name lhand
     direction 1 -4.49094e-011 2.54887e-027   
     length 0.616403   
     axis -1.63363e-015 90 90   XYZ
    dof rx rz
    limits (-90.0 90.0)
           (-45.0 45.0)
  end
  begin
     id 22 
     name lfingers
     direction 1 -4.49002e-011 5.11407e-027   
     length 0.49696   
     axis -3.26723e-015 90 90   XYZ
    dof rx
    limits (0.0 90.0)
  end
  begin
     id 23
     name lthumb
     direction 0.707107 -6.34998e-011 0.707107   
     length 0.713539   
     axis -90 45 -2.25915e-014   XYZ
    dof rx rz
    limits (-45.0 45.0)
           (-45.0 45.0)
  end
  begin
     id 24 
     name rclavicle
     direction -0.937751 0.334612 -0.0930482   
     length 3.46287  
     axis 0 0 0   XYZ 
    dof ry rz
    limits (-10.0 20.0)
           (-20.0 0.0)
  end
  begin
     id 25 
     name rhumerus
     direction -1 -4.48962e-011 3.59972e-027  
     length 5.352   
     axis 180 30 90   XYZ
    dof rx ry rz
    limits (-90.0 60.0)
           (-90.0 90.0)
           (-90.0 90.0)
  end
  begin
     id 26 
     name rradius
     direction -1 -4.48987e-011 -3.76925e-027   
     length 3.43721   
     axis 180 30 90   XYZ
    dof rx
    limits (-10.0 170.0)
  end
  begin
     id 27 
     name rwrist
     direction -1 -4.48943e-011 1.28112e-027   
     length 1.7186   
     axis -1.61767e-015 -90 -90   XYZ
    dof ry
    limits (-180.0 0.0)
  end
  begin
     id 28
     name rhand
     direction -1 -4.49027e-011 2.55483e-027   
     length 0.72009   
     axis -1.63363e-015 -90 -90   XYZ
    dof rx rz
    limits (-90.0 90.0)
           (-45.0 45.0)
  end
  begin
     id 29
     name rfingers
     direction -1 -4.48827e-011 5.14506e-027   
     length 0.580555   
     axis -3.26723e-015 -90 -90   XYZ
    dof rx
    limits (0.0 90.0)
  end
  begin
     id 30
     name rthumb
     direction -0.707107 -6.34936e-011 0.707107   
     length 0.833564   
     axis -90 -45 2.25915e-014   XYZ
    dof rx rz
    limits (-45.0 45.0)
           (-45.0 45.0)
  end
:hierarchy
  begin
    root lhipjoint rhipjoint lowerback
    lhipjoint lfemur
    lfemur ltibia
    ltibia lfoot
    lfoot ltoes
    rhipjoint rfemur
    rfemur rtibia
    rtibia rfoot
    rfoot rtoes
    lowerback upperback
    upperback thorax
    thorax lowerneck lclavicle rclavicle
    lowerneck upperneck
    upperneck head
    lclavicle lhumerus
    lhumerus lradius
    lradius lwrist
    lwrist lhand lthumb
    lhand lfingers
    rclavicle rhumerus
    rhumerus rradius
    rradius rwrist
    rwrist rhand rthumb
    rhand rfingers
  end

#!OML:ASF H:\Terrain\Patient Classification 1\Terrain2\Thursday\justin.ASF
:FULLY-SPECIFIED
:DEGREES
384
root -9.4938 18.1517 -11.435 -131.977 86.1134 -138.239
lowerback 9.77806 -1.65661 -0.268184
upperback 3.15287 -1.92705 4.42827
thorax -2.03515 -0.904318 4.9775
lowerneck -14.3234 -4.01764 -9.51524
upperneck 33.3204 -4.24653 6.31515
head 14.1456 -1.86011 3.62587
rclavicle -3.99557e-014 4.77083e-014
rhumerus -30.3732 -15.7908 -76.0736
rradius 28.8424
rwrist -12.8648
rhand -21.1658 10.7961
rfingers 7.12502
rthumb 5.21424 -19.1198
lclavicle -3.99557e-014 4.77083e-014
lhumerus -29.0943 1.14235 91.3658
lradius 28.5544
lwrist 0.950608
lhand -15.437 21.4971
lfingers 7.12502
lthumb 10.7433 51.2024
rfemur -55.4672 -5.37945 24.5839
rtibia 70.965
rfoot -19.0333 0.188227
rtoes 20.7007
lfemur 1.79781 -3.61865 -16.9052
ltibia 20.1615
lfoot 10.7376 -9.90866
ltoes 5.52939
385
root -9.40452 18.2388 -11.4249 -131.925 86.1228 -138.466
lowerback 9.75354 -1.67025 -0.149012
upperback 3.05647 -1.93137 4.47132
thorax -2.12421 -0.904729 4.95692
lowerneck -14.3501 -3.95423 -9.30071
upperneck 33.5081 -4.12394 6.08014
head 14.2107 -1.80831 3.51878
rclavicle -5.1684e-015 6.36111e-015
rhumerus -30.3152 -15.3119 -76.2354
rradius 29.1948
rwrist -13.167
rhand -21.1128 11.4697
rfingers 7.12502
rthumb 5.2654 -18.4449
lclavicle -5.1684e-015 6.36111e-015
lhumerus -29.2423 0.784293 91.4934
lradius 28.7695
lwrist 0.682967
lhand -15.0788 21.5643
lfingers 7.12502
lthumb 11.0887 51.2513
rfemur -54.8517 -5.20768 24.5588
rtibia 70.1088
rfoot -18.9629 0.19569
rtoes 21.7135
lfemur 1.22731 -4.21442 -16.8436
ltibia 20.4335
lfoot 13.3171 -8.66957
ltoes 9.10307
386
root -9.31151 18.3296 -11.411 -131.274 86.0902 -137.933
lowerback 9.7661 -1.61485 0.0490771
upperback 3.0671 -1.83468 4.5068
thorax -2.13396 -0.854953 4.87105
lowerneck -14.368 -3.93098 -8.86038
upperneck 33.6523 -4.06905 5.67439
head 14.2505 -1.77902 3.28799
rclavicle 2.78299e-015 -2.38542e-015
rhumerus -30.1953 -14.5626 -76.4975
rradius 29.6875
rwrist -13.9837
rhand -21.2991 11.503
rfingers 7.12502
rthumb 5.08558 -18.416
lclavicle 2.78299e-015 -2.38542e-015
lhumerus -29.2659 0.26783 91.736
lradius 28.919
lwrist 0.347848
lhand -14.7003 21.4651
lfingers 7.12502
lthumb 11.4538 51.1323
rfemur -54.0043 -4.95988 24.5505
rtibia 69.2063
rfoot -18.9162 0.305659
rtoes 23.9312
lfemur 0.758684 -4.5596 -16.7144
ltibia 20.8505
lfoot 15.615 -7.76314
ltoes 10.676
387
root -9.22425 18.4143 -11.3945 -132.159 85.9354 -138.869
lowerback 9.87298 -1.58679 0.273044
upperback 3.03393 -1.76699 4.54896
thorax -2.23891 -0.818052 4.78526
lowerneck -14.2777 -3.95569 -8.53353
upperneck 33.808 -4.06895 5.313
head 14.2821 -1.78115 3.0877
rclavicle -2.28602e-014 -7.15625e-015
rhumerus -30.1271 -14.2136 -76.5078
rradius 30.0136
rwrist -14.4204
rhand -20.8192 11.609
rfingers 7.12502
rthumb 5.5489 -18.2983
lclavicle -2.28602e-014 -7.15625e-015
lhumerus -29.4048 -0.568924 92.1121
lradius 29.1013
lwrist 0.36184
lhand -15.1063 21.6146
lfingers 7.12502
lthumb 11.0622 51.3031
rfemur -53.1282 -4.79199 24.556
rtibia 68.3103
rfoot -18.9098 0.140135
rtoes 24.7756
lfemur 0.197462 -4.47426 -16.4711
ltibia 21.4298
lfoot 17.7421 -7.32016
ltoes 11.5285
388
root -9.14354 18.4922 -11.3771 -133.566 85.7155 -140.363
lowerback 9.98717 -1.59349 0.5304
upperback 2.94989 -1.74259 4.55777
thorax -2.39921 -0.802891 4.65159
lowerneck -14.1692 -4.04795 -8.4867
upperneck 33.9844 -4.20059 5.2845
head 14.3488 -1.83129 3.05364
rclavicle 6.75868e-015 -2.94201e-014
rhumerus -30.1417 -14.6033 -76.376
rradius 30.234
rwrist -13.952
rhand -20.0768 11.8503
rfingers 7.12502
rthumb 6.26572 -18.0371
lclavicle 6.75868e-015 -2.94201e-014
lhumerus -29.6029 -1.50241 92.2752
lradius 29.3582
lwrist 0.526491
lhand -15.2682 21.3673
lfingers 7.12502
lthumb 10.906 51.0641
rfemur -52.3257 -4.65659 24.6008
rtibia 67.4322
rfoot -18.9129 -0.331567
rtoes 23.6142
lfemur -0.516663 -4.6892 -16.2353
ltibia 22.2041
lfoot 19.4566 -6.70649
ltoes 13.3303
389
root -9.05906 18.5751 -11.3596 -133.278 85.4757 -140.278
lowerback 9.84111 -1.55497 0.83855
upperback 2.91486 -1.6609 4.61587
thorax -2.36902 -0.761511 4.52367
lowerneck -14.0804 -4.19486 -8.71741
upperneck 34.0035 -4.4349 5.5334
head 14.3751 -1.92682 3.16055
rclavicle -1.82882e-014 -2.38542e-014
rhumerus -30.144 -14.8409 -76.3141
rradius 30.7518
rwrist -13.5804
rhand -19.7711 11.5897
rfingers 7.12502
rthumb 6.56075 -18.2887
lclavicle -1.82882e-014 -2.38542e-014
lhumerus -29.5339 -2.23351 92.3791
lradius 29.5125
lwrist 0.39557
lhand -14.3837 20.5455
lfingers 7.12502
lthumb 11.7591 50.1954
rfemur -51.6069 -4.50197 24.7665
rtibia 66.5376
rfoot -19.0482 -0.696406
rtoes 21.375
lfemur -1.37306 -5.27267 -15.9525
ltibia 23.2185
lfoot 20.1421 -5.87557
ltoes 13.1091
